<?xml version="1.0" encoding="UTF-8" standalone="no"?>
<!DOCTYPE svg PUBLIC "-//W3C//DTD SVG 1.1//EN"
 "http://www.w3.org/Graphics/SVG/1.1/DTD/svg11.dtd">
<!-- Generated by graphviz version 2.47.0 (20210316.0004)
 -->
<!-- Title: dependencies Pages: 1 -->
<svg width="1264pt" height="211pt"
 viewBox="0.00 0.00 1264.00 211.00" xmlns="http://www.w3.org/2000/svg" xmlns:xlink="http://www.w3.org/1999/xlink">
<g id="graph0" class="graph" transform="scale(1 1) rotate(0) translate(4 207)">
<title>dependencies</title>
<polygon fill="white" stroke="transparent" points="-4,4 -4,-207 1260,-207 1260,4 -4,4"/>
<text text-anchor="start" x="607.01" y="-42.4" font-family="Times-12" font-weight="bold" font-size="14.00">Legend</text>
<polygon fill="#ffffb3" stroke="transparent" points="394,-10 394,-30 414,-30 414,-10 394,-10"/>
<text text-anchor="start" x="417.63" y="-15.4" font-family="Times-12" font-size="14.00"> &#160;Declarations</text>
<polygon fill="#8dd3c7" stroke="transparent" points="507,-10 507,-30 527,-30 527,-10 507,-10"/>
<text text-anchor="start" x="530.73" y="-15.4" font-family="Times-12" font-size="14.00"> &#160;Module</text>
<polygon fill="#80b1d3" stroke="transparent" points="593,-10 593,-30 613,-30 613,-10 593,-10"/>
<text text-anchor="start" x="616.78" y="-15.4" font-family="Times-12" font-size="14.00"> &#160;Bootstrap</text>
<polygon fill="#fdb462" stroke="transparent" points="690,-10 690,-30 710,-30 710,-10 690,-10"/>
<text text-anchor="start" x="713.67" y="-15.4" font-family="Times-12" font-size="14.00"> &#160;Providers</text>
<polygon fill="#fb8072" stroke="transparent" points="786,-10 786,-30 806,-30 806,-10 786,-10"/>
<text text-anchor="start" x="809.73" y="-15.4" font-family="Times-12" font-size="14.00"> &#160;Exports</text>
<g id="clust1" class="cluster">
<title>cluster_TripModule</title>
<polygon fill="none" stroke="black" stroke-dasharray="1,5" points="8,-70 8,-195 1248,-195 1248,-70 8,-70"/>
</g>
<g id="clust10" class="cluster">
<title>cluster_TripModule_imports</title>
<polygon fill="none" stroke="black" points="1096,-78 1096,-130 1240,-130 1240,-78 1096,-78"/>
</g>
<g id="clust2" class="cluster">
<title>cluster_TripModule_declarations</title>
<polygon fill="none" stroke="black" points="16,-78 16,-130 1088,-130 1088,-78 16,-78"/>
</g>
<!-- AllTripsComponent -->
<g id="node1" class="node">
<title>AllTripsComponent</title>
<polygon fill="#ffffb3" stroke="black" points="1080.27,-122 951.73,-122 951.73,-86 1080.27,-86 1080.27,-122"/>
<text text-anchor="middle" x="1016" y="-99.8" font-family="Times,serif" font-size="14.00">AllTripsComponent</text>
</g>
<!-- TripModule -->
<g id="node8" class="node">
<title>TripModule</title>
<polygon fill="#8dd3c7" stroke="black" points="664.65,-187 661.65,-191 640.65,-191 637.65,-187 581.35,-187 581.35,-151 664.65,-151 664.65,-187"/>
<text text-anchor="middle" x="623" y="-164.8" font-family="Times,serif" font-size="14.00">TripModule</text>
</g>
<!-- AllTripsComponent&#45;&gt;TripModule -->
<g id="edge1" class="edge">
<title>AllTripsComponent&#45;&gt;TripModule</title>
<path fill="none" stroke="black" d="M1016,-122.11C1016,-141.34 1016,-169 1016,-169 1016,-169 674.69,-169 674.69,-169"/>
<polygon fill="black" stroke="black" points="674.69,-165.5 664.69,-169 674.69,-172.5 674.69,-165.5"/>
</g>
<!-- HomeViewComponent -->
<g id="node2" class="node">
<title>HomeViewComponent</title>
<polygon fill="#ffffb3" stroke="black" points="933.86,-122 788.14,-122 788.14,-86 933.86,-86 933.86,-122"/>
<text text-anchor="middle" x="861" y="-99.8" font-family="Times,serif" font-size="14.00">HomeViewComponent</text>
</g>
<!-- HomeViewComponent&#45;&gt;TripModule -->
<g id="edge2" class="edge">
<title>HomeViewComponent&#45;&gt;TripModule</title>
<path fill="none" stroke="black" d="M861,-122.03C861,-138.4 861,-160 861,-160 861,-160 674.73,-160 674.73,-160"/>
<polygon fill="black" stroke="black" points="674.73,-156.5 664.73,-160 674.73,-163.5 674.73,-156.5"/>
</g>
<!-- MyTripsComponent -->
<g id="node3" class="node">
<title>MyTripsComponent</title>
<polygon fill="#ffffb3" stroke="black" points="770.33,-122 639.67,-122 639.67,-86 770.33,-86 770.33,-122"/>
<text text-anchor="middle" x="705" y="-99.8" font-family="Times,serif" font-size="14.00">MyTripsComponent</text>
</g>
<!-- MyTripsComponent&#45;&gt;TripModule -->
<g id="edge3" class="edge">
<title>MyTripsComponent&#45;&gt;TripModule</title>
<path fill="none" stroke="black" d="M652.33,-122.11C652.33,-122.11 652.33,-140.99 652.33,-140.99"/>
<polygon fill="black" stroke="black" points="648.83,-140.99 652.33,-150.99 655.83,-140.99 648.83,-140.99"/>
</g>
<!-- MyTripsTableComponent -->
<g id="node4" class="node">
<title>MyTripsTableComponent</title>
<polygon fill="#ffffb3" stroke="black" points="622.2,-122 459.8,-122 459.8,-86 622.2,-86 622.2,-122"/>
<text text-anchor="middle" x="541" y="-99.8" font-family="Times,serif" font-size="14.00">MyTripsTableComponent</text>
</g>
<!-- MyTripsTableComponent&#45;&gt;TripModule -->
<g id="edge4" class="edge">
<title>MyTripsTableComponent&#45;&gt;TripModule</title>
<path fill="none" stroke="black" d="M601.64,-122.11C601.64,-122.11 601.64,-140.99 601.64,-140.99"/>
<polygon fill="black" stroke="black" points="598.14,-140.99 601.64,-150.99 605.14,-140.99 598.14,-140.99"/>
</g>
<!-- TableComponent -->
<g id="node5" class="node">
<title>TableComponent</title>
<polygon fill="#ffffb3" stroke="black" points="441.7,-122 328.3,-122 328.3,-86 441.7,-86 441.7,-122"/>
<text text-anchor="middle" x="385" y="-99.8" font-family="Times,serif" font-size="14.00">TableComponent</text>
</g>
<!-- TableComponent&#45;&gt;TripModule -->
<g id="edge5" class="edge">
<title>TableComponent&#45;&gt;TripModule</title>
<path fill="none" stroke="black" d="M385,-122.03C385,-138.4 385,-160 385,-160 385,-160 571.27,-160 571.27,-160"/>
<polygon fill="black" stroke="black" points="571.27,-163.5 581.27,-160 571.27,-156.5 571.27,-163.5"/>
</g>
<!-- TripCardComponent -->
<g id="node6" class="node">
<title>TripCardComponent</title>
<polygon fill="#ffffb3" stroke="black" points="310.15,-122 177.85,-122 177.85,-86 310.15,-86 310.15,-122"/>
<text text-anchor="middle" x="244" y="-99.8" font-family="Times,serif" font-size="14.00">TripCardComponent</text>
</g>
<!-- TripCardComponent&#45;&gt;TripModule -->
<g id="edge6" class="edge">
<title>TripCardComponent&#45;&gt;TripModule</title>
<path fill="none" stroke="black" d="M244,-122.11C244,-141.34 244,-169 244,-169 244,-169 570.99,-169 570.99,-169"/>
<polygon fill="black" stroke="black" points="570.99,-172.5 580.99,-169 570.99,-165.5 570.99,-172.5"/>
</g>
<!-- TripFormComponent -->
<g id="node7" class="node">
<title>TripFormComponent</title>
<polygon fill="#ffffb3" stroke="black" points="159.77,-122 24.23,-122 24.23,-86 159.77,-86 159.77,-122"/>
<text text-anchor="middle" x="92" y="-99.8" font-family="Times,serif" font-size="14.00">TripFormComponent</text>
</g>
<!-- TripFormComponent&#45;&gt;TripModule -->
<g id="edge7" class="edge">
<title>TripFormComponent&#45;&gt;TripModule</title>
<path fill="none" stroke="black" d="M92,-122.29C92,-144.21 92,-178 92,-178 92,-178 571.33,-178 571.33,-178"/>
<polygon fill="black" stroke="black" points="571.33,-181.5 581.33,-178 571.33,-174.5 571.33,-181.5"/>
</g>
<!-- TripRoutingModule -->
<g id="node9" class="node">
<title>TripRoutingModule</title>
<polygon fill="#8dd3c7" stroke="black" points="1232.27,-122 1229.27,-126 1208.27,-126 1205.27,-122 1103.73,-122 1103.73,-86 1232.27,-86 1232.27,-122"/>
<text text-anchor="middle" x="1168" y="-99.8" font-family="Times,serif" font-size="14.00">TripRoutingModule</text>
</g>
<!-- TripRoutingModule&#45;&gt;TripModule -->
<g id="edge8" class="edge">
<title>TripRoutingModule&#45;&gt;TripModule</title>
<path fill="none" stroke="black" d="M1168,-122.29C1168,-144.21 1168,-178 1168,-178 1168,-178 674.86,-178 674.86,-178"/>
<polygon fill="black" stroke="black" points="674.86,-174.5 664.86,-178 674.86,-181.5 674.86,-174.5"/>
</g>
</g>
</svg>
