<?xml version="1.0" encoding="UTF-8" standalone="no"?>
<!DOCTYPE svg PUBLIC "-//W3C//DTD SVG 1.1//EN"
 "http://www.w3.org/Graphics/SVG/1.1/DTD/svg11.dtd">
<!-- Generated by graphviz version 2.47.0 (20210316.0004)
 -->
<!-- Title: dependencies Pages: 1 -->
<svg width="1031pt" height="211pt"
 viewBox="0.00 0.00 1031.00 211.00" xmlns="http://www.w3.org/2000/svg" xmlns:xlink="http://www.w3.org/1999/xlink">
<g id="graph0" class="graph" transform="scale(1 1) rotate(0) translate(4 207)">
<title>dependencies</title>
<polygon fill="white" stroke="transparent" points="-4,4 -4,-207 1027,-207 1027,4 -4,4"/>
<text text-anchor="start" x="490.51" y="-42.4" font-family="Times-12" font-weight="bold" font-size="14.00">Legend</text>
<polygon fill="#ffffb3" stroke="transparent" points="277.5,-10 277.5,-30 297.5,-30 297.5,-10 277.5,-10"/>
<text text-anchor="start" x="301.13" y="-15.4" font-family="Times-12" font-size="14.00"> &#160;Declarations</text>
<polygon fill="#8dd3c7" stroke="transparent" points="390.5,-10 390.5,-30 410.5,-30 410.5,-10 390.5,-10"/>
<text text-anchor="start" x="414.23" y="-15.4" font-family="Times-12" font-size="14.00"> &#160;Module</text>
<polygon fill="#80b1d3" stroke="transparent" points="476.5,-10 476.5,-30 496.5,-30 496.5,-10 476.5,-10"/>
<text text-anchor="start" x="500.28" y="-15.4" font-family="Times-12" font-size="14.00"> &#160;Bootstrap</text>
<polygon fill="#fdb462" stroke="transparent" points="573.5,-10 573.5,-30 593.5,-30 593.5,-10 573.5,-10"/>
<text text-anchor="start" x="597.17" y="-15.4" font-family="Times-12" font-size="14.00"> &#160;Providers</text>
<polygon fill="#fb8072" stroke="transparent" points="669.5,-10 669.5,-30 689.5,-30 689.5,-10 669.5,-10"/>
<text text-anchor="start" x="693.23" y="-15.4" font-family="Times-12" font-size="14.00"> &#160;Exports</text>
<g id="clust1" class="cluster">
<title>cluster_MainModule</title>
<polygon fill="none" stroke="black" stroke-dasharray="1,5" points="8,-70 8,-195 1015,-195 1015,-70 8,-70"/>
</g>
<g id="clust8" class="cluster">
<title>cluster_MainModule_imports</title>
<polygon fill="none" stroke="black" points="755,-78 755,-130 1007,-130 1007,-78 755,-78"/>
</g>
<g id="clust2" class="cluster">
<title>cluster_MainModule_declarations</title>
<polygon fill="none" stroke="black" points="16,-78 16,-130 747,-130 747,-78 16,-78"/>
</g>
<!-- DashboardComponent -->
<g id="node1" class="node">
<title>DashboardComponent</title>
<polygon fill="#ffffb3" stroke="black" points="738.97,-122 597.03,-122 597.03,-86 738.97,-86 738.97,-122"/>
<text text-anchor="middle" x="668" y="-99.8" font-family="Times,serif" font-size="14.00">DashboardComponent</text>
</g>
<!-- MainModule -->
<g id="node6" class="node">
<title>MainModule</title>
<polygon fill="#8dd3c7" stroke="black" points="567.6,-187 564.6,-191 543.6,-191 540.6,-187 478.4,-187 478.4,-151 567.6,-151 567.6,-187"/>
<text text-anchor="middle" x="523" y="-164.8" font-family="Times,serif" font-size="14.00">MainModule</text>
</g>
<!-- DashboardComponent&#45;&gt;MainModule -->
<g id="edge1" class="edge">
<title>DashboardComponent&#45;&gt;MainModule</title>
<path fill="none" stroke="black" d="M668,-122.03C668,-138.4 668,-160 668,-160 668,-160 577.69,-160 577.69,-160"/>
<polygon fill="black" stroke="black" points="577.69,-156.5 567.69,-160 577.69,-163.5 577.69,-156.5"/>
</g>
<!-- FormComponent -->
<g id="node2" class="node">
<title>FormComponent</title>
<polygon fill="#ffffb3" stroke="black" points="578.67,-122 467.33,-122 467.33,-86 578.67,-86 578.67,-122"/>
<text text-anchor="middle" x="523" y="-99.8" font-family="Times,serif" font-size="14.00">FormComponent</text>
</g>
<!-- FormComponent&#45;&gt;MainModule -->
<g id="edge2" class="edge">
<title>FormComponent&#45;&gt;MainModule</title>
<path fill="none" stroke="black" d="M523,-122.11C523,-122.11 523,-140.99 523,-140.99"/>
<polygon fill="black" stroke="black" points="519.5,-140.99 523,-150.99 526.5,-140.99 519.5,-140.99"/>
</g>
<!-- LoginComponent -->
<g id="node3" class="node">
<title>LoginComponent</title>
<polygon fill="#ffffb3" stroke="black" points="449.28,-122 334.72,-122 334.72,-86 449.28,-86 449.28,-122"/>
<text text-anchor="middle" x="392" y="-99.8" font-family="Times,serif" font-size="14.00">LoginComponent</text>
</g>
<!-- LoginComponent&#45;&gt;MainModule -->
<g id="edge3" class="edge">
<title>LoginComponent&#45;&gt;MainModule</title>
<path fill="none" stroke="black" d="M392,-122.03C392,-138.4 392,-160 392,-160 392,-160 468.28,-160 468.28,-160"/>
<polygon fill="black" stroke="black" points="468.28,-163.5 478.28,-160 468.28,-156.5 468.28,-163.5"/>
</g>
<!-- PhoneNumberPipePipe -->
<g id="node4" class="node">
<title>PhoneNumberPipePipe</title>
<polygon fill="#ffffb3" stroke="black" points="316.15,-122 169.85,-122 169.85,-86 316.15,-86 316.15,-122"/>
<text text-anchor="middle" x="243" y="-99.8" font-family="Times,serif" font-size="14.00">PhoneNumberPipePipe</text>
</g>
<!-- PhoneNumberPipePipe&#45;&gt;MainModule -->
<g id="edge4" class="edge">
<title>PhoneNumberPipePipe&#45;&gt;MainModule</title>
<path fill="none" stroke="black" d="M243,-122.11C243,-141.34 243,-169 243,-169 243,-169 468.32,-169 468.32,-169"/>
<polygon fill="black" stroke="black" points="468.32,-172.5 478.32,-169 468.32,-165.5 468.32,-172.5"/>
</g>
<!-- RegisterComponent -->
<g id="node5" class="node">
<title>RegisterComponent</title>
<polygon fill="#ffffb3" stroke="black" points="151.98,-122 24.02,-122 24.02,-86 151.98,-86 151.98,-122"/>
<text text-anchor="middle" x="88" y="-99.8" font-family="Times,serif" font-size="14.00">RegisterComponent</text>
</g>
<!-- RegisterComponent&#45;&gt;MainModule -->
<g id="edge5" class="edge">
<title>RegisterComponent&#45;&gt;MainModule</title>
<path fill="none" stroke="black" d="M88,-122.29C88,-144.21 88,-178 88,-178 88,-178 468.09,-178 468.09,-178"/>
<polygon fill="black" stroke="black" points="468.09,-181.5 478.09,-178 468.09,-174.5 468.09,-181.5"/>
</g>
<!-- MainRoutingModule -->
<g id="node7" class="node">
<title>MainRoutingModule</title>
<polygon fill="#8dd3c7" stroke="black" points="999.22,-122 996.22,-126 975.22,-126 972.22,-122 864.78,-122 864.78,-86 999.22,-86 999.22,-122"/>
<text text-anchor="middle" x="932" y="-99.8" font-family="Times,serif" font-size="14.00">MainRoutingModule</text>
</g>
<!-- MainRoutingModule&#45;&gt;MainModule -->
<g id="edge6" class="edge">
<title>MainRoutingModule&#45;&gt;MainModule</title>
<path fill="none" stroke="black" d="M932,-122.29C932,-144.21 932,-178 932,-178 932,-178 577.94,-178 577.94,-178"/>
<polygon fill="black" stroke="black" points="577.94,-174.5 567.94,-178 577.94,-181.5 577.94,-174.5"/>
</g>
<!-- TripModule -->
<g id="node8" class="node">
<title>TripModule</title>
<polygon fill="#8dd3c7" stroke="black" points="846.65,-122 843.65,-126 822.65,-126 819.65,-122 763.35,-122 763.35,-86 846.65,-86 846.65,-122"/>
<text text-anchor="middle" x="805" y="-99.8" font-family="Times,serif" font-size="14.00">TripModule</text>
</g>
<!-- TripModule&#45;&gt;MainModule -->
<g id="edge7" class="edge">
<title>TripModule&#45;&gt;MainModule</title>
<path fill="none" stroke="black" d="M805,-122.11C805,-141.34 805,-169 805,-169 805,-169 577.68,-169 577.68,-169"/>
<polygon fill="black" stroke="black" points="577.68,-165.5 567.68,-169 577.68,-172.5 577.68,-165.5"/>
</g>
</g>
</svg>
